<?xml version="1.0" standalone="no"?>
<!DOCTYPE svg PUBLIC "-//W3C//DTD SVG 20010904//EN"
 "http://www.w3.org/TR/2001/REC-SVG-20010904/DTD/svg10.dtd">
<svg version="1.0" xmlns="http://www.w3.org/2000/svg"
 width="260.000000pt" height="260.000000pt" viewBox="0 0 260.000000 260.000000"
 preserveAspectRatio="xMidYMid meet">
<metadata>
Created by potrace 1.14, written by Peter Selinger 2001-2017
</metadata>
<g transform="translate(0.000000,260.000000) scale(0.100000,-0.100000)"
fill="#000000" stroke="none">
<path d="M0 1300 l0 -1300 1300 0 1300 0 0 1300 0 1300 -1300 0 -1300 0 0
-1300z m2004 737 c9 -293 7 -317 -27 -304 -12 4 -16 56 -22 290 -4 157 -4 290
0 297 4 6 14 10 23 8 15 -3 18 -35 26 -291z m-416 86 c3 -10 56 -172 117 -360
61 -188 116 -348 123 -355 6 -8 11 -23 10 -33 -1 -11 40 -148 91 -304 51 -155
90 -290 87 -298 -3 -8 -14 -13 -23 -11 -13 2 -41 75 -113 298 l-96 295 -45 6
c-24 4 -111 8 -193 10 l-150 4 -66 -307 c-37 -168 -70 -314 -73 -322 -8 -19
-36 -21 -43 -3 -4 12 282 1342 293 1360 2 4 10 7 18 7 7 0 15 7 19 15 7 20 35
19 44 -2z m-643 -68 c0 -22 50 -18 -552 -41 l-153 -6 0 -293 0 -292 218 -9
c207 -9 217 -10 217 -29 0 -19 -6 -20 -218 -17 l-217 4 0 -292 0 -291 338 3
c331 3 337 3 337 -17 0 -19 -10 -20 -363 -29 -387 -9 -397 -8 -374 36 9 17 13
189 15 651 l2 629 275 5 c151 3 277 7 280 9 2 3 47 3 100 2 87 -3 95 -5 95
-23z"/>
<path d="M1477 1748 c-37 -171 -65 -313 -63 -315 6 -6 340 -22 345 -17 6 6
-201 644 -208 644 -3 0 -36 -140 -74 -312z"/>
</g>
</svg>
