<?xml version="1.0" standalone="no"?>
<!DOCTYPE svg PUBLIC "-//W3C//DTD SVG 20010904//EN"
 "http://www.w3.org/TR/2001/REC-SVG-20010904/DTD/svg10.dtd">
<svg version="1.0" xmlns="http://www.w3.org/2000/svg"
 width="260.000000pt" height="260.000000pt" viewBox="0 0 260.000000 260.000000"
 preserveAspectRatio="xMidYMid meet">
<metadata>
Created by potrace 1.14, written by Peter Selinger 2001-2017
</metadata>
<g transform="translate(0.000000,260.000000) scale(0.100000,-0.100000)"
fill="#000000" stroke="none">
<path d="M0 1300 l0 -1300 1300 0 1300 0 0 1300 0 1300 -1300 0 -1300 0 0
-1300z m2095 930 c0 -178 -1 -185 -20 -185 -19 0 -20 8 -23 175 -1 96 0 180 3
188 3 7 13 12 22 10 16 -3 18 -20 18 -188z m-43 -675 c125 -358 226 -657 225
-665 -1 -8 -11 -15 -22 -15 -16 0 -29 28 -77 165 -31 91 -78 225 -104 297
l-46 133 -267 2 c-258 3 -266 4 -266 23 0 19 8 20 259 23 240 2 258 4 251 20
-55 142 -224 649 -220 660 3 7 13 12 22 10 14 -2 70 -153 245 -653z"/>
</g>
</svg>
